<?xml version="1.0" encoding="UTF-8"?>
<!DOCTYPE svg PUBLIC "-//W3C//DTD SVG 1.1//EN" "http://www.w3.org/Graphics/SVG/1.1/DTD/svg11.dtd">
<svg xmlns="http://www.w3.org/2000/svg" version="1.1" width="2611px" height="3264px" style="shape-rendering:geometricPrecision; text-rendering:geometricPrecision; image-rendering:optimizeQuality; fill-rule:evenodd; clip-rule:evenodd" xmlns:xlink="http://www.w3.org/1999/xlink">
<g><path style="opacity:0.915" fill="#fdfdfd" d="M 208.5,1506.5 C 231.344,1504.23 252.011,1509.73 270.5,1523C 278.179,1529.35 285.179,1536.35 291.5,1544C 288.365,1548.3 284.699,1552.14 280.5,1555.5C 274.048,1547.88 267.381,1540.38 260.5,1533C 238.4,1516.49 215.066,1514.49 190.5,1527C 171.298,1542.61 165.132,1562.44 172,1586.5C 178.064,1598.56 186.897,1608.06 198.5,1615C 216.888,1624.86 235.555,1634.19 254.5,1643C 290.006,1662.19 301.506,1691.02 289,1729.5C 277.158,1752.36 258.325,1765.19 232.5,1768C 198.504,1771.34 169.671,1760.84 146,1736.5C 144.368,1734.07 142.868,1731.57 141.5,1729C 144.28,1724.39 147.613,1720.22 151.5,1716.5C 172.201,1748.52 201.201,1760.69 238.5,1753C 262.442,1743.94 272.609,1726.78 269,1701.5C 264.138,1687.3 254.971,1676.8 241.5,1670C 224.167,1661.33 206.833,1652.67 189.5,1644C 150.169,1622.15 137.336,1589.65 151,1546.5C 162.86,1522.65 182.027,1509.32 208.5,1506.5 Z"/></g>
<g><path style="opacity:0.91" fill="#fefefe" d="M 391.5,1506.5 C 392.458,1506.95 393.292,1507.62 394,1508.5C 424.5,1593.33 455,1678.17 485.5,1763C 485.355,1763.77 485.022,1764.44 484.5,1765C 474.922,1765.82 465.422,1765.65 456,1764.5C 445.068,1734.54 434.235,1704.54 423.5,1674.5C 398.175,1673.5 372.842,1673.17 347.5,1673.5C 337.77,1704.02 327.437,1734.35 316.5,1764.5C 311.208,1765.49 305.875,1765.83 300.5,1765.5C 300.605,1761.68 301.438,1758.01 303,1754.5C 333,1672 362.5,1589.33 391.5,1506.5 Z M 384.5,1566.5 C 396.241,1597.88 407.907,1629.38 419.5,1661C 397.169,1661.5 374.836,1661.67 352.5,1661.5C 362.769,1629.69 373.436,1598.03 384.5,1566.5 Z"/></g>
<g><path style="opacity:0.915" fill="#fefefe" d="M 1055.5,1506.5 C 1147.29,1503.79 1195.29,1548.29 1199.5,1640C 1199.41,1672.59 1189.58,1701.76 1170,1727.5C 1143.04,1756.3 1109.71,1769.97 1070,1768.5C 1030.18,1770.24 996.846,1756.57 970,1727.5C 950.189,1700.56 940.689,1670.23 941.5,1636.5C 940.66,1597.16 953.993,1563.66 981.5,1536C 1003.08,1518.42 1027.74,1508.59 1055.5,1506.5 Z M 1064.5,1518.5 C 1102.57,1517.61 1131.4,1533.28 1151,1565.5C 1174.71,1612.22 1175.37,1659.22 1153,1706.5C 1129.99,1745.33 1095.99,1761.33 1051,1754.5C 1022.77,1748.55 1001.77,1732.88 988,1707.5C 969.953,1670.14 966.62,1631.47 978,1591.5C 991.286,1548.36 1020.12,1524.02 1064.5,1518.5 Z"/></g>
<g><path style="opacity:0.903" fill="#fefefe" d="M 1795.5,1506.5 C 1797.64,1508.7 1799.14,1511.37 1800,1514.5C 1829.54,1597.61 1859.37,1680.61 1889.5,1763.5C 1889.29,1764.09 1888.96,1764.59 1888.5,1765C 1878.84,1765.5 1869.17,1765.67 1859.5,1765.5C 1848.64,1734.91 1837.97,1704.24 1827.5,1673.5C 1802.16,1673.17 1776.82,1673.5 1751.5,1674.5C 1741.31,1704.91 1730.64,1735.07 1719.5,1765C 1714.18,1765.5 1708.84,1765.67 1703.5,1765.5C 1733.77,1679.02 1764.44,1592.69 1795.5,1506.5 Z M 1787.5,1566.5 C 1799.91,1597.39 1811.58,1628.73 1822.5,1660.5C 1800.17,1661.67 1777.84,1661.83 1755.5,1661C 1766.67,1629.67 1777.33,1598.17 1787.5,1566.5 Z"/></g>
<g><path style="opacity:0.904" fill="#fefefe" d="M 2384.5,1506.5 C 2385.46,1506.95 2386.29,1507.62 2387,1508.5C 2416.14,1590.24 2445.47,1671.91 2475,1753.5C 2475.67,1757.17 2475.67,1760.83 2475,1764.5C 2466.33,1765.83 2457.67,1765.83 2449,1764.5C 2438.07,1734.54 2427.23,1704.54 2416.5,1674.5C 2391.18,1673.5 2365.84,1673.17 2340.5,1673.5C 2330.64,1703.91 2320.47,1734.24 2310,1764.5C 2304.58,1765.64 2299.08,1765.81 2293.5,1765C 2293.04,1764.59 2292.71,1764.09 2292.5,1763.5C 2323.57,1677.96 2354.23,1592.3 2384.5,1506.5 Z M 2377.5,1566.5 C 2389.21,1597.95 2400.54,1629.62 2411.5,1661.5C 2389.5,1661.5 2367.5,1661.5 2345.5,1661.5C 2355.77,1629.69 2366.44,1598.03 2377.5,1566.5 Z"/></g>
<g><path style="opacity:0.906" fill="#fdfdfd" d="M 503.5,1509.5 C 542.168,1509.33 580.835,1509.5 619.5,1510C 620.471,1515.07 620.805,1520.24 620.5,1525.5C 590.831,1524.58 561.164,1523.58 531.5,1522.5C 531.5,1557.83 531.5,1593.17 531.5,1628.5C 558.833,1628.5 586.167,1628.5 613.5,1628.5C 614.044,1632.67 613.377,1636.51 611.5,1640C 584.835,1640.5 558.169,1640.67 531.5,1640.5C 531.667,1681.5 531.5,1722.5 531,1763.5C 530.5,1764 530,1764.5 529.5,1765C 520.588,1765.82 511.755,1765.65 503,1764.5C 502.17,1679.43 502.336,1594.43 503.5,1509.5 Z"/></g>
<g><path style="opacity:0.922" fill="#fdfdfd" d="M 641.5,1509.5 C 680.501,1509.33 719.501,1509.5 758.5,1510C 759.471,1515.07 759.805,1520.24 759.5,1525.5C 729.498,1524.55 699.498,1523.55 669.5,1522.5C 669.5,1557.83 669.5,1593.17 669.5,1628.5C 696.833,1628.5 724.167,1628.5 751.5,1628.5C 752.044,1632.67 751.377,1636.51 749.5,1640C 722.835,1640.5 696.169,1640.67 669.5,1640.5C 669.667,1681.83 669.5,1723.17 669,1764.5C 659.917,1765.48 650.751,1765.82 641.5,1765.5C 641.5,1680.17 641.5,1594.83 641.5,1509.5 Z"/></g>
<g><path style="opacity:0.915" fill="#fcfcfc" d="M 779.5,1509.5 C 798.503,1509.33 817.503,1509.5 836.5,1510C 855.579,1510.21 873.246,1515.21 889.5,1525C 905.919,1537.68 913.919,1554.51 913.5,1575.5C 912.276,1605.88 897.276,1625.71 868.5,1635C 874.777,1638.22 879.943,1642.72 884,1648.5C 906.167,1686.83 928.333,1725.17 950.5,1763.5C 950.291,1764.09 949.957,1764.59 949.5,1765C 939.151,1765.83 928.817,1765.67 918.5,1764.5C 895.04,1723.08 871.707,1681.58 848.5,1640C 835.187,1640.31 821.854,1640.47 808.5,1640.5C 808.667,1681.5 808.5,1722.5 808,1763.5C 807.5,1764 807,1764.5 806.5,1765C 797.506,1765.5 788.506,1765.67 779.5,1765.5C 779.5,1680.17 779.5,1594.83 779.5,1509.5 Z M 808.5,1522.5 C 868.158,1514.65 891.991,1539.98 880,1598.5C 873.133,1614.69 860.967,1624.19 843.5,1627C 831.856,1628.05 820.189,1628.55 808.5,1628.5C 808.5,1593.17 808.5,1557.83 808.5,1522.5 Z"/></g>
<g><path style="opacity:0.888" fill="#fefefe" d="M 1229.5,1509.5 C 1237.17,1509.33 1244.84,1509.5 1252.5,1510C 1293.39,1572.56 1333.89,1635.4 1374,1698.5C 1373.03,1635.51 1372.2,1572.51 1371.5,1509.5C 1376.76,1509.2 1381.93,1509.53 1387,1510.5C 1387.67,1596.17 1387.67,1681.83 1387,1767.5C 1386.59,1767.96 1386.09,1768.29 1385.5,1768.5C 1338,1694.17 1290.5,1619.83 1243,1545.5C 1243.75,1618.5 1244.41,1691.5 1245,1764.5C 1239.67,1765.83 1234.33,1765.83 1229,1764.5C 1228.17,1679.43 1228.34,1594.43 1229.5,1509.5 Z"/></g>
<g><path style="opacity:0.932" fill="#fdfdfd" d="M 1518.5,1509.5 C 1527.75,1509.18 1536.92,1509.52 1546,1510.5C 1546.5,1549.83 1546.67,1589.17 1546.5,1628.5C 1583.5,1628.5 1620.5,1628.5 1657.5,1628.5C 1657.5,1588.83 1657.5,1549.17 1657.5,1509.5C 1666.75,1509.18 1675.92,1509.52 1685,1510.5C 1685.67,1595.17 1685.67,1679.83 1685,1764.5C 1675.92,1765.48 1666.75,1765.82 1657.5,1765.5C 1657.5,1723.83 1657.5,1682.17 1657.5,1640.5C 1620.5,1640.5 1583.5,1640.5 1546.5,1640.5C 1546.67,1681.83 1546.5,1723.17 1546,1764.5C 1536.92,1765.48 1527.75,1765.82 1518.5,1765.5C 1518.5,1680.17 1518.5,1594.83 1518.5,1509.5 Z"/></g>
<g><path style="opacity:0.913" fill="#fefefe" d="M 1906.5,1509.5 C 1915.75,1509.18 1924.92,1509.52 1934,1510.5C 1934.5,1591.17 1934.67,1671.83 1934.5,1752.5C 1969.5,1751.64 2004.5,1750.64 2039.5,1749.5C 2039.8,1754.76 2039.47,1759.93 2038.5,1765C 1994.5,1765.5 1950.5,1765.67 1906.5,1765.5C 1906.5,1680.17 1906.5,1594.83 1906.5,1509.5 Z"/></g>
<g><path style="opacity:0.904" fill="#fefefe" d="M 2030.5,1509.5 C 2039.84,1509.33 2049.17,1509.5 2058.5,1510C 2059,1510.5 2059.5,1511 2060,1511.5C 2083.67,1577.17 2107.33,1642.83 2131,1708.5C 2144.12,1671.65 2156.95,1634.65 2169.5,1597.5C 2158.36,1568.4 2148.02,1539.06 2138.5,1509.5C 2147.84,1509.33 2157.17,1509.5 2166.5,1510C 2172.71,1524.62 2178.54,1539.46 2184,1554.5C 2189.14,1539.57 2193.98,1524.57 2198.5,1509.5C 2203.84,1509.33 2209.18,1509.5 2214.5,1510C 2215.06,1510.72 2215.39,1511.56 2215.5,1512.5C 2208.3,1533.61 2200.8,1554.61 2193,1575.5C 2192.33,1577.5 2192.33,1579.5 2193,1581.5C 2208.33,1624.17 2223.67,1666.83 2239,1709.5C 2261.81,1642.91 2284.31,1576.24 2306.5,1509.5C 2311.84,1509.33 2317.18,1509.5 2322.5,1510C 2323.02,1510.56 2323.36,1511.23 2323.5,1512C 2293.13,1597.62 2262.46,1683.12 2231.5,1768.5C 2230.2,1767.91 2229.37,1766.91 2229,1765.5C 2211.67,1716.83 2194.33,1668.17 2177,1619.5C 2159.67,1668.17 2142.33,1716.83 2125,1765.5C 2124.63,1766.91 2123.8,1767.91 2122.5,1768.5C 2091.03,1682.43 2060.36,1596.09 2030.5,1509.5 Z"/></g>
<g><path style="opacity:0.776" fill="#fdfdfd" d="M 1213.5,1831.5 C 1248.93,1833.28 1264.43,1851.95 1260,1887.5C 1255.81,1907.36 1243.64,1918.53 1223.5,1921C 1194.42,1923.89 1177.59,1911.06 1173,1882.5C 1170.57,1852.47 1184.07,1835.47 1213.5,1831.5 Z M 1211.5,1837.5 C 1233.44,1837.6 1245.94,1848.6 1249,1870.5C 1250.92,1886.76 1245.75,1900.26 1233.5,1911C 1216.6,1919.58 1202.44,1916.41 1191,1901.5C 1182.34,1884.85 1182.34,1868.18 1191,1851.5C 1196.12,1844.2 1202.95,1839.53 1211.5,1837.5 Z"/></g>
<g><path style="opacity:0.754" fill="#fefefe" d="M 1445.5,1831.5 C 1446.5,1831.41 1447.33,1831.75 1448,1832.5C 1458.47,1861.42 1468.64,1890.42 1478.5,1919.5C 1474.5,1919.5 1470.5,1919.5 1466.5,1919.5C 1463.57,1909.72 1460.24,1900.05 1456.5,1890.5C 1448.27,1889.19 1440.11,1889.19 1432,1890.5C 1428.33,1900.02 1425.16,1909.69 1422.5,1919.5C 1419.75,1919.81 1417.09,1919.48 1414.5,1918.5C 1425.04,1889.55 1435.37,1860.55 1445.5,1831.5 Z M 1443.5,1854.5 C 1447.24,1863.88 1450.91,1873.38 1454.5,1883C 1447.81,1883.83 1441.14,1883.66 1434.5,1882.5C 1437.91,1873.28 1440.91,1863.94 1443.5,1854.5 Z"/></g>
<g><path style="opacity:0.751" fill="#fefefe" d="M 1846.5,1831.5 C 1847.5,1831.41 1848.33,1831.75 1849,1832.5C 1859.47,1861.42 1869.64,1890.42 1879.5,1919.5C 1875.5,1919.5 1871.5,1919.5 1867.5,1919.5C 1864.57,1909.72 1861.24,1900.05 1857.5,1890.5C 1849.27,1889.19 1841.11,1889.19 1833,1890.5C 1829.33,1900.02 1826.16,1909.69 1823.5,1919.5C 1820.75,1919.81 1818.09,1919.48 1815.5,1918.5C 1826.04,1889.55 1836.37,1860.55 1846.5,1831.5 Z M 1844.5,1854.5 C 1848.24,1863.88 1851.91,1873.38 1855.5,1883C 1848.81,1883.83 1842.14,1883.66 1835.5,1882.5C 1838.91,1873.28 1841.91,1863.94 1844.5,1854.5 Z"/></g>
<g><path style="opacity:0.746" fill="#fefefe" d="M 2133.5,1831.5 C 2134.5,1831.41 2135.33,1831.75 2136,1832.5C 2146.47,1861.42 2156.64,1890.42 2166.5,1919.5C 2162.5,1919.5 2158.5,1919.5 2154.5,1919.5C 2151.57,1909.72 2148.24,1900.05 2144.5,1890.5C 2136.27,1889.19 2128.11,1889.19 2120,1890.5C 2116.33,1900.02 2113.16,1909.69 2110.5,1919.5C 2107.75,1919.81 2105.09,1919.48 2102.5,1918.5C 2113.04,1889.55 2123.37,1860.55 2133.5,1831.5 Z M 2131.5,1854.5 C 2135.24,1863.88 2138.91,1873.38 2142.5,1883C 2135.81,1883.83 2129.14,1883.66 2122.5,1882.5C 2125.91,1873.28 2128.91,1863.94 2131.5,1854.5 Z"/></g>
<g><path style="opacity:0.794" fill="#fefefe" d="M 453.5,1832.5 C 464.288,1832.07 474.954,1832.91 485.5,1835C 497.511,1839.85 502.011,1848.69 499,1861.5C 496.833,1870.33 491.333,1875.83 482.5,1878C 476.518,1879.61 470.518,1879.78 464.5,1878.5C 464.5,1892.17 464.5,1905.83 464.5,1919.5C 460.833,1919.5 457.167,1919.5 453.5,1919.5C 453.5,1890.5 453.5,1861.5 453.5,1832.5 Z M 464.5,1838.5 C 482.995,1836.49 490.495,1844.49 487,1862.5C 484.656,1869.51 479.823,1873.67 472.5,1875C 469.883,1875.82 467.216,1876.32 464.5,1876.5C 464.5,1863.83 464.5,1851.17 464.5,1838.5 Z"/></g>
<g><path style="opacity:0.798" fill="#fefefe" d="M 535.5,1832.5 C 546.288,1832.07 556.954,1832.91 567.5,1835C 579.511,1839.85 584.011,1848.69 581,1861.5C 579.703,1868.8 575.536,1873.63 568.5,1876C 577.543,1889.92 586.21,1904.08 594.5,1918.5C 590.205,1919.66 585.871,1919.83 581.5,1919C 574.126,1905.75 566.626,1892.59 559,1879.5C 554.934,1878.54 550.767,1878.2 546.5,1878.5C 546.5,1892.17 546.5,1905.83 546.5,1919.5C 542.833,1919.5 539.167,1919.5 535.5,1919.5C 535.5,1890.5 535.5,1861.5 535.5,1832.5 Z M 546.5,1838.5 C 564.995,1836.49 572.495,1844.49 569,1862.5C 567.073,1867.43 563.573,1870.59 558.5,1872C 554.514,1872.5 550.514,1872.67 546.5,1872.5C 546.5,1861.17 546.5,1849.83 546.5,1838.5 Z"/></g>
<g><path style="opacity:0.77" fill="#fefefe" d="M 630.5,1832.5 C 644.167,1832.5 657.833,1832.5 671.5,1832.5C 671.5,1834.83 671.5,1837.17 671.5,1839.5C 661.494,1839.32 651.494,1838.99 641.5,1838.5C 641.5,1849.83 641.5,1861.17 641.5,1872.5C 650.5,1872.5 659.5,1872.5 668.5,1872.5C 668.5,1874.5 668.5,1876.5 668.5,1878.5C 659.5,1878.5 650.5,1878.5 641.5,1878.5C 641.5,1890.5 641.5,1902.5 641.5,1914.5C 653.155,1913.85 664.822,1913.52 676.5,1913.5C 676.5,1915.5 676.5,1917.5 676.5,1919.5C 661.167,1919.5 645.833,1919.5 630.5,1919.5C 630.5,1890.5 630.5,1861.5 630.5,1832.5 Z"/></g>
<g><path style="opacity:0.77" fill="#fefefe" d="M 715.5,1832.5 C 719.437,1832.21 723.27,1832.54 727,1833.5C 736.301,1856.1 746.134,1878.43 756.5,1900.5C 766.866,1878.43 776.699,1856.1 786,1833.5C 789.73,1832.54 793.563,1832.21 797.5,1832.5C 797.5,1861.5 797.5,1890.5 797.5,1919.5C 793.833,1919.5 790.167,1919.5 786.5,1919.5C 786.667,1896.16 786.5,1872.83 786,1849.5C 775.433,1873.73 764.6,1897.73 753.5,1921.5C 742.468,1898.1 731.968,1874.43 722,1850.5C 721.337,1873.51 721.503,1896.51 722.5,1919.5C 720.167,1919.5 717.833,1919.5 715.5,1919.5C 715.5,1890.5 715.5,1861.5 715.5,1832.5 Z"/></g>
<g><path style="opacity:0.797" fill="#fbfbfb" d="M 840.5,1832.5 C 843.833,1832.5 847.167,1832.5 850.5,1832.5C 850.5,1861.5 850.5,1890.5 850.5,1919.5C 846.833,1919.5 843.167,1919.5 839.5,1919.5C 839.183,1890.46 839.516,1861.46 840.5,1832.5 Z"/></g>
<g><path style="opacity:0.771" fill="#fefefe" d="M 893.5,1832.5 C 896.833,1832.5 900.167,1832.5 903.5,1832.5C 903.076,1855.53 903.576,1878.53 905,1901.5C 906.975,1911.06 912.808,1915.73 922.5,1915.5C 934.112,1916.05 941.279,1910.71 944,1899.5C 944.487,1877.49 944.487,1855.49 944,1833.5C 946.041,1832.58 948.208,1832.24 950.5,1832.5C 950.939,1856.54 950.439,1880.54 949,1904.5C 944.207,1916.59 935.207,1922.26 922,1921.5C 911.265,1922.27 902.932,1918.27 897,1909.5C 896.138,1907.91 895.471,1906.25 895,1904.5C 893.54,1880.55 893.04,1856.55 893.5,1832.5 Z"/></g>
<g><path style="opacity:0.792" fill="#fcfcfc" d="M 991.5,1832.5 C 995.437,1832.21 999.27,1832.54 1003,1833.5C 1012.47,1856.43 1022.47,1879.1 1033,1901.5C 1042.61,1878.67 1052.61,1856 1063,1833.5C 1066.39,1832.54 1069.89,1832.21 1073.5,1832.5C 1073.5,1861.5 1073.5,1890.5 1073.5,1919.5C 1069.89,1919.79 1066.39,1919.46 1063,1918.5C 1062.67,1895.5 1062.33,1872.5 1062,1849.5C 1051.33,1873.53 1040.66,1897.53 1030,1921.5C 1019.09,1898.01 1008.43,1874.35 998,1850.5C 997.337,1873.51 997.503,1896.51 998.5,1919.5C 996.167,1919.5 993.833,1919.5 991.5,1919.5C 991.5,1890.5 991.5,1861.5 991.5,1832.5 Z"/></g>
<g><path style="opacity:0.776" fill="#fefefe" d="M 1298.5,1832.5 C 1302.23,1832.18 1305.89,1832.51 1309.5,1833.5C 1319.24,1855.98 1329.24,1878.32 1339.5,1900.5C 1349.62,1878.33 1359.45,1855.99 1369,1833.5C 1372.73,1832.54 1376.56,1832.21 1380.5,1832.5C 1380.5,1861.5 1380.5,1890.5 1380.5,1919.5C 1376.83,1919.5 1373.17,1919.5 1369.5,1919.5C 1369.67,1896.16 1369.5,1872.83 1369,1849.5C 1358.43,1873.73 1347.6,1897.73 1336.5,1921.5C 1325.47,1898.1 1314.97,1874.43 1305,1850.5C 1304.32,1873.51 1304.49,1896.51 1305.5,1919.5C 1303.17,1919.5 1300.83,1919.5 1298.5,1919.5C 1298.5,1890.5 1298.5,1861.5 1298.5,1832.5 Z"/></g>
<g><path style="opacity:0.772" fill="#fefefe" d="M 1512.5,1832.5 C 1515.52,1832.34 1518.52,1832.5 1521.5,1833C 1534.79,1853.08 1547.96,1873.25 1561,1893.5C 1560.6,1873.19 1560.43,1852.86 1560.5,1832.5C 1562.5,1832.5 1564.5,1832.5 1566.5,1832.5C 1566.83,1862.17 1566.5,1891.84 1565.5,1921.5C 1549.8,1897.63 1534.3,1873.63 1519,1849.5C 1518.32,1872.84 1518.49,1896.18 1519.5,1919.5C 1517.17,1919.5 1514.83,1919.5 1512.5,1919.5C 1512.5,1890.5 1512.5,1861.5 1512.5,1832.5 Z"/></g>
<g><path style="opacity:0.824" fill="#fdfdfd" d="M 1610.5,1832.5 C 1613.83,1832.5 1617.17,1832.5 1620.5,1832.5C 1620.5,1861.5 1620.5,1890.5 1620.5,1919.5C 1616.83,1919.5 1613.17,1919.5 1609.5,1919.5C 1609.18,1890.43 1609.51,1861.43 1610.5,1832.5 Z"/></g>
<g><path style="opacity:0.819" fill="#fefefe" d="M 1724.5,1832.5 C 1728.17,1832.5 1731.83,1832.5 1735.5,1832.5C 1735.5,1845.83 1735.5,1859.17 1735.5,1872.5C 1747.5,1872.5 1759.5,1872.5 1771.5,1872.5C 1771.5,1859.17 1771.5,1845.83 1771.5,1832.5C 1774.83,1832.5 1778.17,1832.5 1781.5,1832.5C 1781.5,1861.5 1781.5,1890.5 1781.5,1919.5C 1778.17,1919.5 1774.83,1919.5 1771.5,1919.5C 1771.5,1905.83 1771.5,1892.17 1771.5,1878.5C 1759.5,1878.5 1747.5,1878.5 1735.5,1878.5C 1735.5,1892.17 1735.5,1905.83 1735.5,1919.5C 1731.83,1919.5 1728.17,1919.5 1724.5,1919.5C 1724.5,1890.5 1724.5,1861.5 1724.5,1832.5 Z"/></g>
<g><path style="opacity:0.821" fill="#fefefe" d="M 1913.5,1832.5 C 1917.17,1832.5 1920.83,1832.5 1924.5,1832.5C 1924.5,1859.83 1924.5,1887.17 1924.5,1914.5C 1936.16,1913.85 1947.82,1913.52 1959.5,1913.5C 1959.5,1915.5 1959.5,1917.5 1959.5,1919.5C 1944.17,1919.5 1928.83,1919.5 1913.5,1919.5C 1913.5,1890.5 1913.5,1861.5 1913.5,1832.5 Z"/></g>
<g><path style="opacity:0.753" fill="#fefefe" d="M 1983.5,1832.5 C 1987.44,1832.21 1991.27,1832.54 1995,1833.5C 2002.86,1854.76 2010.53,1876.09 2018,1897.5C 2022.36,1886.09 2026.53,1874.59 2030.5,1863C 2026.53,1852.93 2022.87,1842.76 2019.5,1832.5C 2023.5,1832.5 2027.5,1832.5 2031.5,1832.5C 2032.69,1836.91 2034.19,1841.24 2036,1845.5C 2037.6,1841.54 2039.1,1837.54 2040.5,1833.5C 2042.74,1832.53 2045.08,1832.19 2047.5,1832.5C 2045.44,1840.67 2042.78,1848.67 2039.5,1856.5C 2044.5,1869.84 2049.5,1883.18 2054.5,1896.5C 2062.15,1876.05 2069.32,1855.39 2076,1834.5C 2078.11,1832.71 2080.61,1832.04 2083.5,1832.5C 2074.38,1861.36 2064.55,1890.02 2054,1918.5C 2053.63,1919.91 2052.8,1920.91 2051.5,1921.5C 2045.39,1905.62 2039.56,1889.62 2034,1873.5C 2028.15,1888.72 2022.48,1904.06 2017,1919.5C 2016.46,1921.27 2015.63,1921.6 2014.5,1920.5C 2003.76,1891.28 1993.43,1861.95 1983.5,1832.5 Z"/></g>
</svg>
