<svg xmlns="http://www.w3.org/2000/svg" xmlns:xlink="http://www.w3.org/1999/xlink" version="1.1" style="shape-rendering:geometricPrecision; text-rendering:geometricPrecision; image-rendering:optimizeQuality; fill-rule:evenodd; clip-rule:evenodd" viewBox="367.5 1415.4 2044 492.19">
<g><path style="opacity:0.805" fill="#fefefe" d="M 2260.5,1415.5 C 2282.17,1415.5 2303.83,1415.5 2325.5,1415.5C 2325.5,1417.83 2325.5,1420.17 2325.5,1422.5C 2316.16,1422.26 2306.83,1421.92 2297.5,1421.5C 2297.5,1448.5 2297.5,1475.5 2297.5,1502.5C 2294.17,1502.5 2290.83,1502.5 2287.5,1502.5C 2287.5,1475.5 2287.5,1448.5 2287.5,1421.5C 2278.5,1421.88 2269.5,1422.21 2260.5,1422.5C 2260.5,1420.17 2260.5,1417.83 2260.5,1415.5 Z"/></g>
<g><path style="opacity:0.771" fill="#fefefe" d="M 2329.5,1415.5 C 2333.44,1415.21 2337.27,1415.54 2341,1416.5C 2350.3,1439.1 2360.13,1461.43 2370.5,1483.5C 2380.62,1461.33 2390.45,1438.99 2400,1416.5C 2403.73,1415.54 2407.56,1415.21 2411.5,1415.5C 2411.5,1444.5 2411.5,1473.5 2411.5,1502.5C 2407.83,1502.5 2404.17,1502.5 2400.5,1502.5C 2400.67,1479.16 2400.5,1455.83 2400,1432.5C 2389.43,1456.73 2378.6,1480.73 2367.5,1504.5C 2356.47,1481.1 2345.97,1457.43 2336,1433.5C 2335.34,1456.51 2335.5,1479.51 2336.5,1502.5C 2334.17,1502.5 2331.83,1502.5 2329.5,1502.5C 2329.5,1473.5 2329.5,1444.5 2329.5,1415.5 Z"/></g>
<g><path style="opacity:0.839" fill="#fdfdfd" d="M 1162.5,1502.5 C 1170.84,1502.33 1179.17,1502.5 1187.5,1503C 1198.63,1522.09 1209.63,1541.25 1220.5,1560.5C 1215.87,1561.66 1211.2,1561.83 1206.5,1561C 1193.03,1543.23 1179.19,1525.73 1165,1508.5C 1163.44,1506.78 1162.61,1504.78 1162.5,1502.5 Z"/></g>
<g><path style="opacity:0.902" fill="#fefefe" d="M 1821.5,1506.5 C 1822.5,1506.41 1823.33,1506.75 1824,1507.5C 1855.21,1593.29 1885.71,1679.29 1915.5,1765.5C 1905.81,1765.83 1896.14,1765.5 1886.5,1764.5C 1875.5,1734.5 1864.5,1704.5 1853.5,1674.5C 1828.27,1673.17 1803.1,1673.17 1778,1674.5C 1767.53,1704.76 1757.36,1735.09 1747.5,1765.5C 1741.83,1765.5 1736.17,1765.5 1730.5,1765.5C 1730.42,1762.73 1730.92,1760.06 1732,1757.5C 1762.34,1673.99 1792.17,1590.32 1821.5,1506.5 Z M 1814.5,1566.5 C 1826.24,1597.88 1837.91,1629.38 1849.5,1661C 1827.16,1661.83 1804.83,1661.67 1782.5,1660.5C 1793.37,1629.21 1804.04,1597.88 1814.5,1566.5 Z"/></g>
<g><path style="opacity:0.918" fill="#fdfdfd" d="M 367.5,1509.5 C 406.833,1509.5 446.167,1509.5 485.5,1509.5C 485.5,1514.83 485.5,1520.17 485.5,1525.5C 455.498,1524.55 425.498,1523.55 395.5,1522.5C 395.5,1557.83 395.5,1593.17 395.5,1628.5C 423.167,1628.5 450.833,1628.5 478.5,1628.5C 479.044,1632.67 478.377,1636.51 476.5,1640C 449.502,1640.5 422.502,1640.67 395.5,1640.5C 395.5,1682.17 395.5,1723.83 395.5,1765.5C 386.167,1765.5 376.833,1765.5 367.5,1765.5C 367.5,1680.17 367.5,1594.83 367.5,1509.5 Z"/></g>
<g><path style="opacity:0.916" fill="#fefefe" d="M 508.5,1509.5 C 517.751,1509.18 526.917,1509.52 536,1510.5C 536.667,1595.17 536.667,1679.83 536,1764.5C 526.917,1765.48 517.751,1765.82 508.5,1765.5C 508.5,1680.17 508.5,1594.83 508.5,1509.5 Z"/></g>
<g><path style="opacity:0.913" fill="#fefefe" d="M 580.5,1509.5 C 589.833,1509.5 599.167,1509.5 608.5,1509.5C 608.5,1590.5 608.5,1671.5 608.5,1752.5C 643.505,1751.64 678.505,1750.64 713.5,1749.5C 713.805,1754.76 713.471,1759.93 712.5,1765C 668.501,1765.5 624.501,1765.67 580.5,1765.5C 580.5,1680.17 580.5,1594.83 580.5,1509.5 Z"/></g>
<g><path style="opacity:0.913" fill="#fefefe" d="M 731.5,1509.5 C 740.751,1509.18 749.917,1509.52 759,1510.5C 759.5,1591.17 759.667,1671.83 759.5,1752.5C 794.503,1751.6 829.503,1750.6 864.5,1749.5C 864.805,1754.76 864.471,1759.93 863.5,1765C 819.501,1765.5 775.501,1765.67 731.5,1765.5C 731.5,1680.17 731.5,1594.83 731.5,1509.5 Z"/></g>
<g><path style="opacity:0.913" fill="#fefefe" d="M 973.5,1509.5 C 982.833,1509.5 992.167,1509.5 1001.5,1509.5C 1001.5,1590.5 1001.5,1671.5 1001.5,1752.5C 1036.5,1751.64 1071.5,1750.64 1106.5,1749.5C 1106.5,1754.83 1106.5,1760.17 1106.5,1765.5C 1062.17,1765.5 1017.83,1765.5 973.5,1765.5C 973.5,1680.17 973.5,1594.83 973.5,1509.5 Z"/></g>
<g><path style="opacity:0.917" fill="#fdfdfd" d="M 1384.5,1509.5 C 1393.75,1509.18 1402.92,1509.52 1412,1510.5C 1412.5,1549.83 1412.67,1589.17 1412.5,1628.5C 1449.5,1628.5 1486.5,1628.5 1523.5,1628.5C 1523.5,1588.83 1523.5,1549.17 1523.5,1509.5C 1532.83,1509.5 1542.17,1509.5 1551.5,1509.5C 1551.5,1594.83 1551.5,1680.17 1551.5,1765.5C 1542.17,1765.5 1532.83,1765.5 1523.5,1765.5C 1523.5,1723.83 1523.5,1682.17 1523.5,1640.5C 1486.5,1640.5 1449.5,1640.5 1412.5,1640.5C 1412.67,1681.83 1412.5,1723.17 1412,1764.5C 1407.41,1765.15 1402.75,1765.49 1398,1765.5C 1393.08,1765.47 1388.41,1764.8 1384,1763.5C 1383.17,1678.79 1383.34,1594.13 1384.5,1509.5 Z"/></g>
<g><path style="opacity:0.913" fill="#fdfdfd" d="M 1592.5,1509.5 C 1631.5,1509.5 1670.5,1509.5 1709.5,1509.5C 1709.5,1514.83 1709.5,1520.17 1709.5,1525.5C 1679.5,1524.55 1649.5,1523.55 1619.5,1522.5C 1619.5,1557.83 1619.5,1593.17 1619.5,1628.5C 1647.17,1628.5 1674.83,1628.5 1702.5,1628.5C 1703.04,1632.67 1702.38,1636.51 1700.5,1640C 1673.5,1640.5 1646.5,1640.67 1619.5,1640.5C 1619.5,1677.83 1619.5,1715.17 1619.5,1752.5C 1654.5,1751.65 1689.5,1750.65 1724.5,1749.5C 1724.5,1754.83 1724.5,1760.17 1724.5,1765.5C 1680.26,1765.83 1636.09,1765.5 1592,1764.5C 1591.17,1679.43 1591.34,1594.43 1592.5,1509.5 Z"/></g>
<g><path style="opacity:0.907" fill="#fefefe" d="M 1933.5,1509.5 C 1952.5,1509.33 1971.5,1509.5 1990.5,1510C 2012.07,1509.88 2031.4,1516.22 2048.5,1529C 2060.87,1541.91 2066.87,1557.41 2066.5,1575.5C 2065.64,1606.08 2050.64,1625.91 2021.5,1635C 2028.24,1638.4 2033.74,1643.24 2038,1649.5C 2058.75,1686 2079.75,1722.33 2101,1758.5C 2102.41,1760.65 2103.24,1762.98 2103.5,1765.5C 2093.16,1765.67 2082.83,1765.5 2072.5,1765C 2048.83,1723.33 2025.17,1681.67 2001.5,1640C 1988.19,1640.33 1974.86,1640.5 1961.5,1640.5C 1961.67,1681.83 1961.5,1723.17 1961,1764.5C 1951.67,1765.83 1942.33,1765.83 1933,1764.5C 1932.17,1679.43 1932.34,1594.43 1933.5,1509.5 Z M 1961.5,1522.5 C 2023.02,1515.18 2046.52,1541.51 2032,1601.5C 2024.74,1616.23 2012.9,1624.73 1996.5,1627C 1984.86,1628.05 1973.19,1628.55 1961.5,1628.5C 1961.5,1593.17 1961.5,1557.83 1961.5,1522.5 Z"/></g>
<g><path style="opacity:0.899" fill="#fefefe" d="M 2075.5,1509.5 C 2138.17,1509.5 2200.83,1509.5 2263.5,1509.5C 2263.5,1514.83 2263.5,1520.17 2263.5,1525.5C 2237.17,1524.36 2210.84,1523.36 2184.5,1522.5C 2184.5,1603.5 2184.5,1684.5 2184.5,1765.5C 2175.07,1766.12 2165.9,1765.46 2157,1763.5C 2156.5,1683.17 2156.33,1602.83 2156.5,1522.5C 2129.17,1523.61 2101.84,1524.61 2074.5,1525.5C 2074.22,1520.07 2074.55,1514.74 2075.5,1509.5 Z"/></g>
<g><path style="opacity:0.903" fill="#fefefe" d="M 1184.5,1575.5 C 1224.84,1573.68 1251.01,1592.01 1263,1630.5C 1266.7,1644.61 1268.36,1658.95 1268,1673.5C 1224.91,1674.5 1181.74,1674.83 1138.5,1674.5C 1138.12,1697.19 1144.29,1717.85 1157,1736.5C 1177.06,1758.43 1200.23,1762.26 1226.5,1748C 1237.32,1740.68 1244.98,1730.84 1249.5,1718.5C 1253.64,1722.76 1257.3,1727.43 1260.5,1732.5C 1240.84,1760.66 1213.84,1772.49 1179.5,1768C 1139.39,1760.89 1116.56,1737.05 1111,1696.5C 1105.93,1666.99 1110.26,1638.99 1124,1612.5C 1138.02,1590.08 1158.19,1577.74 1184.5,1575.5 Z M 1187.5,1587.5 C 1209.5,1587.75 1224.67,1598.09 1233,1618.5C 1238.53,1632.65 1241.7,1647.32 1242.5,1662.5C 1207.83,1662.67 1173.17,1662.5 1138.5,1662C 1140.84,1639.63 1148.68,1619.46 1162,1601.5C 1169.07,1594.05 1177.57,1589.38 1187.5,1587.5 Z"/></g>
<g><path style="opacity:0.77" fill="#fefefe" d="M 1165.5,1817.5 C 1201.4,1818.92 1216.9,1837.59 1212,1873.5C 1207.94,1892.9 1196.1,1904.06 1176.5,1907C 1146.92,1910.39 1129.75,1897.55 1125,1868.5C 1122.57,1838.47 1136.07,1821.47 1165.5,1817.5 Z M 1163.5,1823.5 C 1185.43,1823.59 1197.93,1834.59 1201,1856.5C 1202.92,1872.76 1197.75,1886.26 1185.5,1897C 1159.91,1906.62 1143.74,1898.12 1137,1871.5C 1134.41,1856.07 1138.24,1842.57 1148.5,1831C 1153.05,1827.39 1158.05,1824.89 1163.5,1823.5 Z"/></g>
<g><path style="opacity:0.75" fill="#fefefe" d="M 1701.5,1817.5 C 1702.5,1817.41 1703.33,1817.75 1704,1818.5C 1714.47,1847.42 1724.64,1876.42 1734.5,1905.5C 1730.56,1905.79 1726.73,1905.46 1723,1904.5C 1719.4,1895.21 1715.9,1885.87 1712.5,1876.5C 1704.27,1875.19 1696.11,1875.19 1688,1876.5C 1684.33,1886.02 1681.16,1895.69 1678.5,1905.5C 1675.75,1905.81 1673.09,1905.48 1670.5,1904.5C 1681.04,1875.55 1691.37,1846.55 1701.5,1817.5 Z M 1699.5,1840.5 C 1703.24,1849.88 1706.91,1859.38 1710.5,1869C 1703.81,1869.83 1697.14,1869.66 1690.5,1868.5C 1693.91,1859.28 1696.91,1849.94 1699.5,1840.5 Z"/></g>
<g><path style="opacity:0.781" fill="#fefefe" d="M 708.5,1818.5 C 722.167,1818.5 735.833,1818.5 749.5,1818.5C 749.5,1820.83 749.5,1823.17 749.5,1825.5C 739.497,1825.25 729.497,1824.92 719.5,1824.5C 719.5,1835.83 719.5,1847.17 719.5,1858.5C 728.5,1858.5 737.5,1858.5 746.5,1858.5C 746.5,1860.17 746.5,1861.83 746.5,1863.5C 737.5,1863.5 728.5,1863.5 719.5,1863.5C 719.5,1877.5 719.5,1891.5 719.5,1905.5C 715.833,1905.5 712.167,1905.5 708.5,1905.5C 708.5,1876.5 708.5,1847.5 708.5,1818.5 Z"/></g>
<g><path style="opacity:0.824" fill="#fdfdfd" d="M 785.5,1818.5 C 788.833,1818.5 792.167,1818.5 795.5,1818.5C 795.5,1847.5 795.5,1876.5 795.5,1905.5C 791.833,1905.5 788.167,1905.5 784.5,1905.5C 784.175,1876.43 784.509,1847.43 785.5,1818.5 Z"/></g>
<g><path style="opacity:0.821" fill="#fefefe" d="M 837.5,1818.5 C 841.167,1818.5 844.833,1818.5 848.5,1818.5C 848.5,1845.83 848.5,1873.17 848.5,1900.5C 860.155,1899.85 871.822,1899.52 883.5,1899.5C 883.5,1901.5 883.5,1903.5 883.5,1905.5C 868.167,1905.5 852.833,1905.5 837.5,1905.5C 837.5,1876.5 837.5,1847.5 837.5,1818.5 Z"/></g>
<g><path style="opacity:0.794" fill="#fefefe" d="M 916.5,1818.5 C 920.167,1818.5 923.833,1818.5 927.5,1818.5C 927.5,1845.83 927.5,1873.17 927.5,1900.5C 939.155,1899.85 950.822,1899.52 962.5,1899.5C 962.5,1901.5 962.5,1903.5 962.5,1905.5C 947.167,1905.5 931.833,1905.5 916.5,1905.5C 916.5,1876.5 916.5,1847.5 916.5,1818.5 Z"/></g>
<g><path style="opacity:0.757" fill="#fefefe" d="M 1044.5,1818.5 C 1048.44,1818.21 1052.27,1818.54 1056,1819.5C 1062.35,1832.86 1068.68,1846.2 1075,1859.5C 1080.56,1846.05 1086.39,1832.72 1092.5,1819.5C 1094.74,1818.53 1097.08,1818.19 1099.5,1818.5C 1093.22,1835.15 1086.05,1851.49 1078,1867.5C 1077.5,1880.16 1077.33,1892.83 1077.5,1905.5C 1073.83,1905.5 1070.17,1905.5 1066.5,1905.5C 1066.67,1892.83 1066.5,1880.16 1066,1867.5C 1059.27,1852.38 1052.27,1837.38 1045,1822.5C 1044.51,1821.21 1044.34,1819.87 1044.5,1818.5 Z"/></g>
<g><path style="opacity:0.765" fill="#fefefe" d="M 1248.5,1818.5 C 1251.83,1818.5 1255.17,1818.5 1258.5,1818.5C 1258.08,1841.53 1258.58,1864.53 1260,1887.5C 1263.37,1899.5 1271.2,1904 1283.5,1901C 1292,1899.17 1297.17,1894 1299,1885.5C 1299.62,1863.16 1299.46,1840.83 1298.5,1818.5C 1300.83,1818.5 1303.17,1818.5 1305.5,1818.5C 1305.94,1842.54 1305.44,1866.54 1304,1890.5C 1299.21,1902.59 1290.21,1908.26 1277,1907.5C 1266.27,1908.27 1257.93,1904.27 1252,1895.5C 1251.14,1893.91 1250.47,1892.25 1250,1890.5C 1248.54,1866.55 1248.04,1842.55 1248.5,1818.5 Z"/></g>
<g><path style="opacity:0.787" fill="#fefefe" d="M 1345.5,1818.5 C 1356.29,1818.07 1366.95,1818.91 1377.5,1821C 1389.51,1825.85 1394.01,1834.69 1391,1847.5C 1389.7,1854.8 1385.54,1859.63 1378.5,1862C 1387.54,1875.92 1396.21,1890.08 1404.5,1904.5C 1400.2,1905.66 1395.87,1905.83 1391.5,1905C 1384.09,1891.5 1376.42,1878.17 1368.5,1865C 1364.51,1864.5 1360.51,1864.33 1356.5,1864.5C 1356.5,1878.17 1356.5,1891.83 1356.5,1905.5C 1352.83,1905.5 1349.17,1905.5 1345.5,1905.5C 1345.5,1876.5 1345.5,1847.5 1345.5,1818.5 Z M 1356.5,1824.5 C 1375.19,1822.27 1382.69,1830.27 1379,1848.5C 1377.07,1853.43 1373.57,1856.59 1368.5,1858C 1364.51,1858.5 1360.51,1858.67 1356.5,1858.5C 1356.5,1847.17 1356.5,1835.83 1356.5,1824.5 Z"/></g>
<g><path style="opacity:0.837" fill="#fefefe" d="M 1497.5,1818.5 C 1501.17,1818.5 1504.83,1818.5 1508.5,1818.5C 1508.5,1831.83 1508.5,1845.17 1508.5,1858.5C 1520.5,1858.5 1532.5,1858.5 1544.5,1858.5C 1544.5,1845.17 1544.5,1831.83 1544.5,1818.5C 1547.83,1818.5 1551.17,1818.5 1554.5,1818.5C 1554.5,1847.5 1554.5,1876.5 1554.5,1905.5C 1551.17,1905.5 1547.83,1905.5 1544.5,1905.5C 1544.5,1891.83 1544.5,1878.17 1544.5,1864.5C 1532.5,1864.5 1520.5,1864.5 1508.5,1864.5C 1508.5,1878.17 1508.5,1891.83 1508.5,1905.5C 1504.83,1905.5 1501.17,1905.5 1497.5,1905.5C 1497.5,1876.5 1497.5,1847.5 1497.5,1818.5 Z"/></g>
<g><path style="opacity:0.767" fill="#fefefe" d="M 1595.5,1818.5 C 1609.17,1818.5 1622.83,1818.5 1636.5,1818.5C 1636.5,1820.83 1636.5,1823.17 1636.5,1825.5C 1626.49,1825.32 1616.49,1824.99 1606.5,1824.5C 1606.5,1835.83 1606.5,1847.17 1606.5,1858.5C 1615.5,1858.5 1624.5,1858.5 1633.5,1858.5C 1633.5,1860.5 1633.5,1862.5 1633.5,1864.5C 1624.5,1864.5 1615.5,1864.5 1606.5,1864.5C 1606.5,1876.5 1606.5,1888.5 1606.5,1900.5C 1618.16,1899.85 1629.82,1899.52 1641.5,1899.5C 1641.5,1901.5 1641.5,1903.5 1641.5,1905.5C 1626.17,1905.5 1610.83,1905.5 1595.5,1905.5C 1595.5,1876.5 1595.5,1847.5 1595.5,1818.5 Z"/></g>
<g><path style="opacity:0.8" fill="#fefefe" d="M 1767.5,1818.5 C 1778.29,1818.07 1788.95,1818.91 1799.5,1821C 1811.51,1825.85 1816.01,1834.69 1813,1847.5C 1811.7,1854.8 1807.54,1859.63 1800.5,1862C 1809.54,1875.92 1818.21,1890.08 1826.5,1904.5C 1822.2,1905.66 1817.87,1905.83 1813.5,1905C 1806.09,1891.5 1798.42,1878.17 1790.5,1865C 1786.51,1864.5 1782.51,1864.33 1778.5,1864.5C 1778.5,1878.17 1778.5,1891.83 1778.5,1905.5C 1774.83,1905.5 1771.17,1905.5 1767.5,1905.5C 1767.5,1876.5 1767.5,1847.5 1767.5,1818.5 Z M 1778.5,1824.5 C 1797.19,1822.27 1804.69,1830.27 1801,1848.5C 1799.07,1853.43 1795.57,1856.59 1790.5,1858C 1786.51,1858.5 1782.51,1858.67 1778.5,1858.5C 1778.5,1847.17 1778.5,1835.83 1778.5,1824.5 Z"/></g>
<g><path style="opacity:0.801" fill="#fefefe" d="M 1844.5,1818.5 C 1866.5,1818.5 1888.5,1818.5 1910.5,1818.5C 1910.5,1820.83 1910.5,1823.17 1910.5,1825.5C 1901.16,1825.26 1891.83,1824.92 1882.5,1824.5C 1882.5,1851.5 1882.5,1878.5 1882.5,1905.5C 1879.17,1905.5 1875.83,1905.5 1872.5,1905.5C 1872.5,1878.5 1872.5,1851.5 1872.5,1824.5C 1863.17,1825 1853.84,1825.33 1844.5,1825.5C 1844.5,1823.17 1844.5,1820.83 1844.5,1818.5 Z"/></g>
</svg>
